# xmcd
#
# Track frame offsets:
#	150
#	16858
#	35266
#	52225
#	73658
#	87691
#	104750
#	126232
#	144866
#	176724
#	199533
#	222890
#	244073
#	257456
#	270040
#	279648
#	293881
#	309039
#	318772
#	329755
#
# Disc length: 4523 seconds
#
# Revision: 3
# Processed by: cddbd v1.5.2PL0 Copyright (c) Steve Scherf et al.
# Submitted via: EasyCDDAExtractor 16.0.6.1
#
DISCID=2711a914
DTITLE=Howlin' Wolf - JB-181 The Gold Collection CD 2
DYEAR=1900
DGENRE=Blues
TTITLE0=Shake It For Me
TTITLE1=Love Me
TTITLE2=Dust My Broom
TTITLE3=I Didn't Mean To Hurt Your Feelings
TTITLE4=Rockin' The Blues
TTITLE5=All My Life
TTITLE6=Goin' Down Slow
TTITLE7=Howlin' For My Darlin'
TTITLE8=Fourty Four
TTITLE9=Little Red Rooster
TTITLE10=Evil
TTITLE11=Blind Love
TTITLE12=My Baby Walked Off
TTITLE13=Bluebird
TTITLE14=Look-A-Here Baby
TTITLE15=Decoration Day
TTITLE16=Sweet Woman
TTITLE17=Come Back Home
TTITLE18=Highway Man
TTITLE19=Smile At Me
EXTD=ID3G:   0
EXTT0=
EXTT1=
EXTT2=
EXTT3=
EXTT4=
EXTT5=
EXTT6=
EXTT7=
EXTT8=
EXTT9=
EXTT10=
EXTT11=
EXTT12=
EXTT13=
EXTT14=
EXTT15=
EXTT16=
EXTT17=
EXTT18=
EXTT19=
PLAYORDER=
